<?xml version="1.0" standalone="no"?>
<!DOCTYPE svg PUBLIC "-//W3C//DTD SVG 20010904//EN"
 "http://www.w3.org/TR/2001/REC-SVG-20010904/DTD/svg10.dtd">
<svg version="1.0" xmlns="http://www.w3.org/2000/svg"
 width="160.000000pt" height="160.000000pt" viewBox="0 0 160.000000 160.000000"
 preserveAspectRatio="xMidYMid meet">
<metadata>
Created by potrace 1.11, written by Peter Selinger 2001-2013
</metadata>
<g transform="translate(0.000000,160.000000) scale(0.100000,-0.100000)"
fill="#000000" stroke="none">
<path d="M842 1584 c-59 -30 -77 -68 -77 -159 l0 -80 -63 -17 c-34 -9 -110
-40 -169 -70 -115 -57 -182 -113 -240 -201 -17 -26 -55 -67 -83 -90 -38 -31
-47 -43 -35 -45 10 -3 15 -10 12 -21 -2 -10 1 -25 7 -33 17 -23 63 -12 70 17
9 36 45 43 68 14 l20 -24 -6 38 c-4 31 0 42 22 65 15 16 38 43 51 60 24 32
118 85 173 98 l28 6 -27 -58 c-33 -72 -38 -161 -17 -279 29 -152 28 -153 -75
-264 -23 -24 -41 -47 -41 -52 0 -4 -44 -40 -97 -80 -111 -83 -219 -189 -248
-246 -10 -21 -27 -50 -37 -65 -10 -14 -18 -33 -18 -41 0 -21 112 -48 203 -49
49 -1 177 11 187 17 4 2 22 7 41 10 95 16 219 57 337 111 41 19 78 34 82 34 5
0 10 3 12 8 2 4 23 18 48 31 182 96 561 434 599 534 9 23 6 31 -22 61 -77 81
-113 83 -301 18 -47 -17 -86 -30 -86 -29 -1 1 -3 25 -5 53 -1 29 -8 61 -14 72
-14 27 -86 76 -157 109 -30 14 -54 28 -52 33 2 4 19 33 38 64 33 53 37 56 65
49 67 -17 138 -7 215 29 52 24 82 32 95 27 38 -15 51 -9 27 11 -29 24 -22 53
19 77 16 9 29 23 29 30 0 10 -6 9 -25 -3 -29 -19 -33 -9 -8 18 23 25 8 35 -19
12 -14 -12 -18 -13 -10 -3 22 29 -1 30 -25 2 -15 -19 -21 -22 -16 -9 4 13 2
17 -7 14 -7 -2 -14 -12 -16 -23 -4 -30 -27 -45 -81 -54 -66 -10 -118 -5 -166
16 -34 15 -36 17 -22 33 25 28 29 122 7 161 -38 69 -123 97 -190 63z m155
-777 c6 -7 13 -23 15 -36 3 -26 7 -24 -163 -90 l-46 -18 1 112 0 111 91 -33
c49 -19 95 -39 102 -46z"/>
</g>
</svg>
